<svg width="175" height="64" viewBox="0 0 175 64" fill="none" xmlns="http://www.w3.org/2000/svg">
<path d="M170.394 19.6642L174.568 23.8668C174.714 23.9829 174.822 24.1396 174.878 24.3171C174.963 25.3515 174.18 25.4081 173.38 25.4659C173.034 25.4909 172.685 25.5162 172.402 25.621C170.998 26.0009 169.746 26.8033 168.815 27.9193C167.883 29.0353 167.318 30.4109 167.195 31.8593C167.105 32.0266 166.969 32.1643 166.802 32.2558C166.636 32.3474 166.447 32.3888 166.257 32.3753C166.037 32.3558 165.831 32.2595 165.675 32.1032L164.305 30.7238C164.315 30.8182 164.315 30.9117 164.315 30.9869V31.8968C164.315 31.9543 164.317 32.0097 164.31 32.065C164.301 32.127 164.28 32.1888 164.231 32.2532V32.3377C164.231 32.3808 164.236 32.4209 164.241 32.4616C164.251 32.5449 164.262 32.6307 164.231 32.7505C164.201 32.8622 164.198 32.9925 164.194 33.1088C164.193 33.1779 164.191 33.2421 164.184 33.2945C164.174 33.3672 164.174 33.4448 164.168 33.5223C164.162 33.5949 164.15 33.6674 164.118 33.7354C164.074 33.8306 164.059 33.9215 164.055 34.0139C164.052 34.0581 164.052 34.1026 164.052 34.1482L163.996 34.439L161.867 44.5891L161.698 45.3489L161.632 46.4559L160.694 51.2495L160.544 52H84.6248L84.2589 51.6341L84.1932 51.9531H76.0694L71.5478 47.4034L71.9793 45.3489H69.4277L67.8424 43.7448C65.8749 45.1775 63.4934 45.9285 61.06 45.8837C58.4442 45.9866 55.8941 45.0488 53.9681 43.2758L51.5009 40.7899L50.9662 43.2851C50.9006 43.6416 50.8161 43.9794 50.7223 44.3077L50.6379 44.6173L50.4972 45.0675C50.4856 45.1066 50.4699 45.1444 50.4503 45.1801C50.3106 45.5937 50.1446 45.9979 49.9531 46.3902C49.9581 46.4054 49.9581 46.4219 49.9531 46.4371C49.9285 46.4891 49.9003 46.5392 49.8686 46.5872C49.727 46.8675 49.5705 47.1399 49.3996 47.4034C49.3679 47.4513 49.3397 47.5015 49.3152 47.5535L49.212 47.666C48.9827 47.9949 48.732 48.3082 48.4615 48.6041C48.3873 48.6783 48.3131 48.748 48.2377 48.8164C48.1607 48.8864 48.0825 48.9551 48.0018 49.0262L47.7955 49.2232C47.6654 49.3313 47.5323 49.4356 47.3964 49.5361C47.2843 49.619 47.1703 49.6992 47.0544 49.7767C45.1211 50.9222 42.891 51.4674 40.6473 51.3433C37.5516 51.3433 35.075 50.4427 33.5084 48.8668L29.0994 44.4296C27.3383 45.4262 25.3442 45.9377 23.3208 45.9118C20.7129 45.9925 18.1782 45.042 16.2664 43.2664L13.7993 40.7805L13.0019 44.6173L12.8424 45.3771H4.54036L0 40.7992L0.234521 39.6923L5.22515 15.7242L5.37521 14.9737H13.7054L13.9212 15.1801V14.9737H70.0469L70.2533 15.1801V14.9737H78.3771L82.9174 19.5516L82.6923 20.6491L82.4484 21.8499H84.7842L85.1501 22.2158C86.1779 21.6134 87.3453 21.29 88.5366 21.2777C89.4126 21.2604 90.2825 21.4268 91.0903 21.7661C91.8982 22.1054 92.626 22.61 93.227 23.2476L93.105 23.1069L95.3095 25.3302C96.651 22.8068 99.6622 21.2777 103.752 21.2777C106.923 21.2777 109.259 22.0844 110.675 23.5478L112.27 25.152L112.805 22.5722L112.964 21.8217H121.097L123.424 24.1576L123.752 22.5816L123.912 21.8311H139.916L140.347 22.2627C141.431 21.6231 142.672 21.2982 143.931 21.3246C144.688 21.295 145.442 21.4336 146.14 21.7305C146.837 22.0273 147.46 22.475 147.964 23.0413C147.938 23.0118 147.913 22.9823 147.888 22.9533C147.843 22.8995 147.798 22.847 147.75 22.7984L148.565 23.6135C149.275 22.8782 150.129 22.2959 151.072 21.9024C152.016 21.5088 153.03 21.3121 154.052 21.3246C154.595 21.2912 155.137 21.3374 155.663 21.4603L154.775 20.5647C154.654 20.4353 154.572 20.2742 154.539 20.1002C154.506 19.9262 154.523 19.7463 154.587 19.5815C154.652 19.4166 154.762 19.2734 154.905 19.1685C155.048 19.0637 155.217 19.0013 155.394 18.9887H156.107C156.299 18.9704 156.49 18.9423 156.679 18.9043C157.676 18.6947 158.614 18.2662 159.425 17.6497C160.237 17.0332 160.901 16.2442 161.37 15.3396C161.411 15.2696 161.448 15.1977 161.482 15.1238V15.077C161.805 14.3822 162.001 13.6358 162.064 12.8724C162.08 12.6352 162.187 12.4131 162.361 12.2512C162.535 12.0892 162.764 11.9994 163.002 12H163.077C163.219 12.0135 163.357 12.0594 163.479 12.1342C163.601 12.209 163.704 12.3107 163.781 12.4315C164.456 13.0882 168.208 16.9062 168.208 16.9062C168.521 17.2424 168.498 17.6789 168.474 18.1205C168.459 18.3935 168.444 18.6686 168.508 18.9231C168.679 18.9537 168.852 18.9769 169.024 18.9926C169.19 19.0075 169.356 19.0157 169.522 19.0169C169.716 19.0209 169.905 19.0854 170.061 19.2014C170.217 19.3173 170.334 19.4791 170.394 19.6642Z" fill="black"/>
<path d="M42.9362 22.7502H48.8649L45.5441 38.5006C44.9344 41.4837 43.7711 43.1911 42.0075 44.4012C40.2237 45.4363 38.1754 45.9255 36.1164 45.8083C32.1952 45.8083 28.4334 44.1667 28.0582 40.1798H34.0244C34.212 41.1179 35.0751 41.6526 36.3884 41.6526C38.1614 41.6526 38.9775 40.5832 39.3434 38.904L39.6998 37.1685H39.5685C39.045 37.744 38.41 38.207 37.7021 38.5295C36.9941 38.852 36.2281 39.0273 35.4503 39.0447C31.9982 39.0447 29.2589 36.2961 29.3152 32.2717C29.3903 27.5813 32.4484 22.253 37.5798 22.253C38.5522 22.1875 39.523 22.4018 40.3775 22.8706C41.232 23.3393 41.9343 24.043 42.4015 24.8984H42.5047L42.9362 22.7502ZM37.8424 34.6451C40.122 34.6451 41.3884 32.0185 41.4259 29.7577C41.4259 28.2474 40.8349 26.6995 39.0901 26.6995C36.7073 26.6995 35.4972 29.3543 35.4597 31.6338C35.4597 33.1723 36.0507 34.6451 37.7955 34.6451M104.4 35.1517C104.4 36.1554 103.536 36.5588 102.401 36.5588C100.525 36.5588 99.8968 35.6207 99.8874 34.3074H93.9869C93.8837 39.2042 98.2552 40.4143 102.139 40.4143C107.101 40.4143 110.319 38.2661 110.385 33.9791C110.385 30.555 107.467 29.5138 104.597 28.8477C102.392 28.3412 101.426 27.9753 101.435 27.1404C101.445 26.3055 102.43 25.9678 103.396 25.9678C104.606 25.9678 105.431 26.3993 105.516 27.5063H111.248C111.182 23.4162 107.495 22.2155 103.743 22.2155C99.1839 22.2155 95.6285 24.2886 95.5722 28.2098C95.5722 31.2961 97.6548 32.4312 100.797 33.238C102.814 33.7727 104.418 33.9415 104.4 35.1517ZM148.236 25.2924H148.133C147.878 24.3686 147.314 23.5599 146.536 23.0002C145.758 22.4406 144.812 22.1637 143.855 22.2155C141.304 22.2155 139.747 23.4819 138.274 25.3956H138.171L138.715 22.7502H132.748L129.174 39.8421H135.413L137.289 30.6207C137.72 28.6132 138.743 27.2061 140.291 27.2061C141.839 27.2061 142.045 28.4443 141.726 29.9547L139.662 39.8421H145.9L147.777 30.6207C148.208 28.4819 149.231 27.2061 150.778 27.2061C152.326 27.2061 152.533 28.3787 152.214 29.9547L150.15 39.8421H156.388L158.621 29.6826C159.559 25.3956 158.124 22.1779 154.006 22.1779C152.86 22.1732 151.732 22.4558 150.724 22.9999C149.716 23.544 148.861 24.3322 148.236 25.2924ZM1.14453 39.8421H7.58918L12.5704 15.874H6.13515L1.14453 39.8421ZM20.5441 22.2436C24.8968 22.2436 29.0526 24.6263 28.9869 30.0203C28.9306 35.9209 24.9156 40.3393 18.7805 40.3393C14.5591 40.3393 10.3378 37.9941 10.4128 32.6282C10.516 26.8684 14.4747 22.2436 20.5441 22.2436ZM18.9588 36.1554C21.7074 36.1554 22.7111 32.1685 22.7111 29.8233C22.7111 28.1442 22.1952 26.5025 20.3846 26.5025C17.6642 26.5025 16.7355 30.7239 16.7355 32.9003C16.7355 34.6451 17.2233 36.1554 18.9963 36.1554M14.7186 15.874L13.7805 20.6676H67.8987L68.8368 15.874H14.7186ZM58.2458 22.2436C62.5985 22.2436 66.7542 24.6263 66.6886 30.0203C66.6323 35.9209 62.6079 40.3393 56.4728 40.3393C52.2514 40.3393 48.03 37.9941 48.1145 32.6282C48.2458 26.8684 52.2045 22.2436 58.2458 22.2436ZM56.6886 36.1554C59.4372 36.1554 60.4409 32.1685 60.4409 29.8233C60.4409 28.1442 59.9156 26.5025 58.1051 26.5025C55.394 26.5025 54.4559 30.7239 54.4559 32.9003C54.4559 34.6451 54.9437 36.1554 56.7261 36.1554M71.0507 15.874L70.1126 20.6676H76.3415L77.2796 15.874H71.0507ZM66.0601 39.8421H72.2983L75.8724 22.7502H69.5966L66.0601 39.8421ZM85.9662 40.4143C84.9734 40.4848 83.9805 40.2773 83.0989 39.815C82.2174 39.3527 81.4821 38.6539 80.9756 37.7971H80.8724L78.9963 46.4462H72.6829L77.7486 22.7502H83.6773L83.2083 25.0297C83.8274 24.1877 84.6294 23.497 85.5539 23.0095C86.4784 22.5221 87.5014 22.2506 88.546 22.2155C92.2983 22.2155 94.5028 25.4331 94.4372 29.617C94.3527 34.8796 91.6229 40.4143 85.9287 40.4143H85.9662ZM85.7223 27.056C83.3115 27.056 81.8293 30.1423 81.7918 32.5157C81.7918 34.1667 82.3734 36.0053 84.3527 36.0053C86.9325 36.0053 87.9925 32.5907 88.0206 30.3111C88.0206 28.7633 87.5704 27.056 85.7223 27.056ZM121.792 37.1498H121.895L121.351 39.8609H127.279L130.854 22.7689H124.625L122.636 32.3186C122.233 34.298 121.013 35.3393 119.475 35.3393C117.936 35.3393 117.598 33.8946 117.908 32.3843L119.925 22.7689H113.696L111.491 33.3224C110.553 37.919 112.692 40.3956 116.276 40.3956C117.401 40.3846 118.504 40.0771 119.472 39.5039C120.44 38.9307 121.241 38.1122 121.792 37.131V37.1498ZM155.253 46.5307L156.191 41.737H82.2139L81.2758 46.5307H155.253Z" fill="white"/>
<path d="M161.96 27.4414C161.899 27.4367 161.839 27.4198 161.784 27.3917C161.728 27.3637 161.679 27.325 161.639 27.2779C161.599 27.2308 161.569 27.1763 161.55 27.1174C161.531 27.0585 161.524 26.9965 161.529 26.9348C161.607 26.0994 161.508 25.2568 161.238 24.4624C160.968 23.668 160.533 22.9395 159.961 22.3249C159.39 21.7102 158.695 21.2232 157.923 20.8957C157.15 20.5682 156.317 20.4076 155.478 20.4245C155.354 20.4245 155.235 20.3751 155.147 20.2871C155.059 20.1992 155.009 20.0798 155.009 19.9554C155.009 19.831 155.059 19.7118 155.147 19.6238C155.235 19.5358 155.354 19.4864 155.478 19.4864C155.703 19.5009 155.929 19.5009 156.154 19.4864C157.82 19.3089 159.372 18.5561 160.543 17.3576C161.715 16.159 162.431 14.5897 162.57 12.9198C162.58 12.802 162.633 12.6922 162.72 12.6122C162.807 12.5322 162.921 12.4879 163.039 12.4883C163.101 12.493 163.161 12.5099 163.216 12.538C163.271 12.566 163.32 12.6047 163.36 12.6518C163.401 12.6989 163.431 12.7534 163.45 12.8123C163.469 12.8712 163.476 12.9332 163.471 12.9949C163.393 13.8295 163.492 14.6713 163.761 15.465C164.031 16.2588 164.465 16.9867 165.035 17.6012C165.606 18.2157 166.299 18.703 167.07 19.031C167.842 19.3591 168.674 19.5207 169.512 19.5052C169.636 19.5052 169.756 19.5546 169.844 19.6426C169.932 19.7305 169.981 19.8498 169.981 19.9742C169.981 20.0986 169.932 20.2179 169.844 20.3059C169.756 20.3938 169.636 20.4433 169.512 20.4433C167.73 20.4727 166.021 21.1592 164.714 22.3712C163.407 23.5831 162.593 25.235 162.43 27.0099C162.42 27.1277 162.367 27.2376 162.28 27.3176C162.193 27.3976 162.079 27.4418 161.96 27.4414Z" fill="white"/>
</svg>
