<svg width="183" height="51" viewBox="0 0 183 51" fill="none" xmlns="http://www.w3.org/2000/svg">
<g clip-path="url(#clip0_1_168)">
<path d="M7.57469 9.95576V3.59375H-12.1387V47.3045H7.57469V40.9425C3.5364 40.9425 -0.33653 39.31 -3.19195 36.4045C-6.04745 33.499 -7.65164 29.5582 -7.65164 25.4492C-7.65164 21.34 -6.04745 17.3991 -3.19195 14.4937C-0.33653 11.5881 3.5364 9.95576 7.57469 9.95576Z" fill="white"/>
<path d="M7.57861 9.95508V40.9418C11.6169 40.9418 15.4899 39.3094 18.3454 36.4039C21.2009 33.4983 22.805 29.5575 22.805 25.4485C22.805 21.3394 21.2009 17.3985 18.3454 14.493C15.4899 11.5874 11.6169 9.95508 7.57861 9.95508Z" fill="white"/>
<path d="M33.8662 13.8477H38.2797V35.4784H33.8662V13.8477Z" fill="white"/>
<path d="M40.7512 28.0678C40.7512 26.5116 41.2054 24.9904 42.056 23.697C42.9066 22.4037 44.1155 21.3964 45.5293 20.8028C46.9432 20.2094 48.4984 20.0564 49.9978 20.3634C51.4972 20.6702 52.8732 21.4232 53.9517 22.5267C55.03 23.6304 55.7622 25.0348 56.0552 26.5623C56.3481 28.0897 56.1889 29.6713 55.5976 31.1066C55.0062 32.5417 54.0095 33.766 52.7335 34.6241C51.4576 35.4822 49.96 35.9355 48.4305 35.9268C47.4162 35.9348 46.4104 35.7368 45.4722 35.3439C44.5341 34.9514 43.6823 34.372 42.967 33.6402C42.2518 32.9082 41.6875 32.0381 41.3068 31.0813C40.9265 30.1244 40.7375 29.0999 40.7512 28.0678ZM51.8142 28.0678C51.7968 27.3968 51.5855 26.7459 51.2065 26.1968C50.8275 25.6474 50.298 25.2239 49.6836 24.9793C49.0694 24.7346 48.3979 24.6797 47.7533 24.8215C47.1085 24.9631 46.5192 25.2951 46.0588 25.7759C45.5985 26.2565 45.2876 26.8645 45.1652 27.5241C45.0428 28.1837 45.1142 28.8652 45.3705 29.4836C45.6268 30.102 46.0564 30.63 46.6061 31.001C47.1556 31.3722 47.8003 31.5703 48.46 31.5707C48.9091 31.5796 49.3552 31.4942 49.7704 31.3196C50.1855 31.1452 50.5608 30.8855 50.8728 30.5567C51.1849 30.2281 51.4268 29.8371 51.5838 29.4091C51.7409 28.9808 51.8092 28.5242 51.7848 28.0678H51.8142Z" fill="white"/>
<path d="M73.5702 20.6585V34.7447C73.5702 39.7146 69.7451 41.8253 65.876 41.8253C64.5113 41.9391 63.1423 41.6633 61.9236 41.0286C60.7046 40.3938 59.6839 39.4256 58.9763 38.2326L62.6983 36.0471C63 36.6659 63.4798 37.1763 64.0738 37.5107C64.6677 37.8449 65.3478 37.9871 66.0231 37.9182C66.4535 37.9722 66.8901 37.9288 67.3019 37.7909C67.7138 37.6531 68.0905 37.4246 68.4054 37.1213C68.7203 36.818 68.9654 36.4478 69.1233 36.0369C69.2812 35.6262 69.3478 35.1848 69.3185 34.7447V33.3825C68.8049 34.0161 68.1533 34.5191 67.4153 34.8518C66.6773 35.1844 65.8732 35.3374 65.067 35.2986C63.1161 35.2986 61.2452 34.51 59.8657 33.1063C58.4862 31.7027 57.7112 29.799 57.7112 27.8139C57.7112 25.8288 58.4862 23.9251 59.8657 22.5214C61.2452 21.1177 63.1161 20.3291 65.067 20.3291C65.8732 20.2904 66.6773 20.4434 67.4153 20.776C68.1533 21.1086 68.8049 21.6116 69.3185 22.2452V20.7483L73.5702 20.6585ZM69.3185 27.769C69.3478 27.0528 69.1659 26.3441 68.7963 25.7338C68.4266 25.1237 67.8861 24.6401 67.244 24.345C66.602 24.05 65.888 23.9571 65.1936 24.0783C64.4993 24.1997 63.8565 24.5294 63.3479 25.0254C62.8393 25.5213 62.4882 26.1608 62.3396 26.8615C62.1909 27.5622 62.2518 28.292 62.5141 28.9573C62.7765 29.6225 63.2285 30.1927 63.8117 30.5945C64.3952 30.9962 65.0834 31.2114 65.7878 31.2119C66.2475 31.2456 66.709 31.1808 67.1424 31.0218C67.5759 30.8627 67.972 30.6129 68.3047 30.2884C68.6373 29.964 68.8996 29.572 69.0742 29.138C69.2488 28.7042 69.332 28.2377 69.3185 27.769Z" fill="white"/>
<path d="M76.0586 28.068C76.0586 26.513 76.512 24.993 77.3613 23.7002C78.2106 22.4074 79.4177 21.4002 80.8298 20.8059C82.2419 20.2114 83.7957 20.0566 85.2943 20.3611C86.7929 20.6655 88.169 21.4156 89.2487 22.5161C90.3283 23.6168 91.0626 25.0186 91.3589 26.544C91.6553 28.0694 91.5003 29.6501 90.9134 31.0858C90.3267 32.5216 89.3344 33.748 88.0624 34.6098C86.7903 35.4716 85.2956 35.93 83.7673 35.9269C82.7512 35.937 81.7429 35.7404 80.8023 35.3488C79.8616 34.9572 79.0072 34.3785 78.2893 33.6465C77.5712 32.9144 77.0042 32.044 76.621 31.0862C76.2381 30.1282 76.0468 29.102 76.0586 28.068ZM87.1216 28.068C87.1042 27.3965 86.8924 26.745 86.5128 26.1953C86.1333 25.6458 85.6026 25.2223 84.9876 24.9781C84.3725 24.7339 83.7003 24.68 83.0552 24.8229C82.4101 24.9657 81.8208 25.2992 81.3611 25.7814C80.9014 26.2636 80.5917 26.8731 80.471 27.5336C80.3503 28.194 80.4237 28.8761 80.6821 29.4941C80.9406 30.1123 81.3727 30.6391 81.9242 31.0086C82.4756 31.3779 83.1218 31.5735 83.7821 31.5708C84.2313 31.5798 84.6773 31.4943 85.0924 31.3198C85.5076 31.1453 85.8829 30.8857 86.195 30.5569C86.507 30.2282 86.749 29.8374 86.906 29.4092C87.0629 28.9809 87.1313 28.5244 87.1069 28.068H87.1216Z" fill="white"/>
<path d="M93.5217 16.6919C93.5217 16.165 93.6752 15.6497 93.963 15.2116C94.2508 14.7733 94.6598 14.4319 95.1382 14.2302C95.6168 14.0285 96.1433 13.9757 96.6513 14.0786C97.1591 14.1814 97.6257 14.4352 97.9921 14.8078C98.3582 15.1805 98.6076 15.6553 98.7087 16.172C98.8097 16.6889 98.7577 17.2247 98.5596 17.7116C98.3614 18.1984 98.0257 18.6146 97.5952 18.9074C97.1646 19.2003 96.6584 19.3565 96.1404 19.3565C95.4481 19.3487 94.7866 19.0655 94.2971 18.5675C93.8077 18.0694 93.5293 17.3963 93.5217 16.6919ZM93.9483 20.6589H98.3618V35.4785H93.9483V20.6589Z" fill="white"/>
<path d="M117.252 28.0679C117.302 29.0535 117.159 30.0394 116.832 30.9687C116.506 31.898 116.002 32.7524 115.35 33.4828C114.698 34.2134 113.91 34.8052 113.032 35.2246C112.154 35.6441 111.203 35.8827 110.235 35.9269C109.412 35.9826 108.588 35.8486 107.824 35.535C107.06 35.2212 106.375 34.7361 105.821 34.1155V41.4356H101.408V20.658H105.821V22.0502C106.376 21.4315 107.061 20.9486 107.826 20.6375C108.59 20.3263 109.413 20.1953 110.235 20.2538C111.2 20.2981 112.147 20.5353 113.021 20.952C113.896 21.3685 114.682 21.9565 115.334 22.682C115.985 23.4077 116.49 24.2568 116.819 25.1809C117.148 26.105 117.295 27.0859 117.252 28.0679ZM112.838 28.0679C112.821 27.3726 112.602 26.6981 112.21 26.1288C111.817 25.5595 111.268 25.1206 110.632 24.8674C109.995 24.6142 109.299 24.5579 108.631 24.7053C107.963 24.8527 107.353 25.1976 106.877 25.6966C106.401 26.1956 106.08 26.8263 105.955 27.5102C105.829 28.1938 105.905 28.8999 106.173 29.54C106.44 30.18 106.887 30.7254 107.458 31.1081C108.029 31.4907 108.698 31.6933 109.381 31.6905C109.849 31.7107 110.317 31.63 110.752 31.4537C111.187 31.2773 111.581 31.0094 111.908 30.6673C112.234 30.3253 112.486 29.9168 112.646 29.469C112.807 29.0209 112.872 28.5435 112.838 28.0679Z" fill="white"/>
<path d="M130.681 31.0315C130.681 34.4446 127.738 35.8966 124.62 35.8966C123.347 36.0131 122.07 35.7387 120.953 35.1089C119.836 34.4791 118.93 33.523 118.352 32.3638L122.147 30.1783C122.298 30.7124 122.624 31.1778 123.072 31.4967C123.518 31.8155 124.06 31.9684 124.604 31.9297C125.649 31.9297 126.179 31.6004 126.179 31.0017C126.179 29.37 119.014 30.2382 119.014 25.1037C119.014 21.8703 121.692 20.2536 124.722 20.2536C125.874 20.201 127.018 20.4671 128.034 21.0232C129.049 21.5792 129.897 22.4048 130.489 23.4121L126.693 25.448C126.525 25.0618 126.251 24.7333 125.905 24.5022C125.558 24.2711 125.152 24.1473 124.737 24.1456C123.971 24.1456 123.516 24.4451 123.516 24.969C123.516 26.6754 130.681 25.5527 130.681 31.0315Z" fill="white"/>
<path d="M146.674 20.6582V35.4779H142.26V34.0858C141.759 34.7021 141.121 35.1896 140.402 35.5095C139.681 35.8294 138.897 35.9723 138.111 35.927C135.169 35.927 132.654 33.7863 132.654 29.7896V20.6582H137.067V29.1159C137.032 29.4695 137.073 29.8265 137.188 30.1624C137.302 30.4981 137.487 30.8047 137.728 31.061C137.97 31.3172 138.264 31.5168 138.589 31.6463C138.915 31.7756 139.263 31.8316 139.613 31.8104C141.201 31.8104 142.319 30.8524 142.319 28.8165V20.6582H146.674Z" fill="white"/>
<path d="M171.682 26.376V35.4775H167.268V26.7653C167.268 25.2682 166.577 24.3402 165.179 24.3402C163.782 24.3402 162.899 25.3731 162.899 27.1245V35.4775H158.486V26.7653C158.486 25.2682 157.794 24.3402 156.396 24.3402C154.999 24.3402 154.116 25.3731 154.116 27.1245V35.4775H149.703V20.6577H154.116V22.0199C154.574 21.4181 155.17 20.9415 155.854 20.6332C156.536 20.3248 157.286 20.1942 158.029 20.2535C158.775 20.2139 159.52 20.3726 160.188 20.7137C160.856 21.0548 161.425 21.5669 161.84 22.1996C162.326 21.5385 162.967 21.0134 163.706 20.6731C164.442 20.3327 165.255 20.1884 166.061 20.2535C169.505 20.2535 171.682 22.6786 171.682 26.376Z" fill="white"/>
<path d="M175.391 20.5679C177.178 20.5679 178.628 19.0935 178.628 17.2747C178.628 15.4559 177.178 13.9814 175.391 13.9814C173.604 13.9814 172.154 15.4559 172.154 17.2747C172.154 19.0935 173.604 20.5679 175.391 20.5679Z" fill="white"/>
</g>
<defs>
<clipPath id="clip0_1_168">
<rect width="183" height="51" fill="white"/>
</clipPath>
</defs>
</svg>
