<svg width="20" height="20" viewBox="0 0 20 20" fill="none" xmlns="http://www.w3.org/2000/svg">
<path d="M7.39183 3.15353C7.34336 3.12355 7.30442 3.0804 7.27955 3.02913C7.25468 2.97786 7.2449 2.92056 7.25136 2.86394C7.25782 2.80732 7.28025 2.7537 7.31602 2.70934C7.3518 2.66499 7.39945 2.63172 7.45343 2.61342C8.54945 2.23578 9.71575 2.10693 10.8678 2.23621C12.0198 2.3655 13.1285 2.74968 14.1136 3.36086C14.1493 3.38337 14.1798 3.41314 14.2033 3.44824C14.2267 3.48334 14.2424 3.52298 14.2495 3.56458C14.2566 3.60618 14.2549 3.6488 14.2444 3.68968C14.2339 3.73056 14.2149 3.76876 14.1887 3.80182C13.3189 4.91328 12.2523 5.85541 11.0419 6.58126C10.0642 5.20826 8.82352 4.04314 7.39183 3.15353ZM9.96922 7.14542C8.87206 5.64835 7.42869 4.43926 5.76248 3.62153C5.71476 3.59836 5.6617 3.58843 5.60884 3.5928C5.55598 3.59716 5.50526 3.61564 5.46199 3.64632C4.11312 4.61116 3.1048 5.97874 2.58189 7.55257C2.56875 7.59281 2.56426 7.63538 2.56872 7.67747C2.57318 7.7196 2.58649 7.76022 2.60776 7.79683C2.62904 7.83345 2.65781 7.86514 2.69218 7.88983C2.72656 7.91453 2.76578 7.93168 2.80725 7.94022C3.59132 8.10922 4.39099 8.1953 5.19306 8.19706C6.84264 8.19799 8.4726 7.83906 9.96922 7.14542ZM17.7667 9.15037C17.5757 7.40799 16.8032 5.78076 15.5739 4.53123C15.544 4.50079 15.5078 4.47709 15.468 4.4617C15.4281 4.44632 15.3854 4.43961 15.3428 4.44203C15.3001 4.44445 15.2584 4.45593 15.2206 4.47572C15.1828 4.4955 15.1495 4.52314 15.1232 4.55678C14.1724 5.768 13.0094 6.79633 11.691 7.59163C12.1029 8.30522 12.4438 9.05753 12.7088 9.83776C13.7851 9.54599 14.8953 9.39845 16.0104 9.39899C16.4873 9.39907 16.9638 9.42591 17.4377 9.47937C17.4818 9.48383 17.5263 9.47837 17.5681 9.46353C17.6098 9.44876 17.6478 9.42483 17.6792 9.3936C17.7107 9.36237 17.7348 9.3246 17.7499 9.28291C17.7651 9.24122 17.7708 9.19676 17.7667 9.1526V9.15037ZM13.0408 10.9908C13.2635 11.938 13.3757 12.9078 13.3751 13.8807C13.3747 14.812 13.2711 15.7404 13.0664 16.6489C13.0533 16.7045 13.0564 16.7628 13.0752 16.8167C13.0941 16.8707 13.1279 16.9181 13.1728 16.9536C13.2177 16.989 13.2717 17.0108 13.3285 17.0166C13.3854 17.0224 13.4428 17.0118 13.4938 16.9861C14.6332 16.4146 15.6158 15.5736 16.3564 14.5361C17.0969 13.4987 17.5731 12.2961 17.7434 11.0329C17.7485 10.9935 17.7458 10.9534 17.7354 10.9151C17.725 10.8768 17.7071 10.8409 17.6827 10.8095C17.6583 10.7781 17.628 10.752 17.5934 10.7324C17.5588 10.7128 17.5207 10.7003 17.4812 10.6956C15.9957 10.5044 14.4871 10.6065 13.0408 10.9961V10.9908ZM11.5655 10.2058C11.3233 9.49553 11.0115 8.81083 10.6348 8.16176C8.93675 8.97753 7.07685 9.40045 5.19306 9.39899C4.3125 9.39907 3.43435 9.30714 2.57287 9.12483C2.53131 9.11606 2.48835 9.11622 2.44685 9.1253C2.40535 9.13429 2.36623 9.15206 2.33209 9.1773C2.29794 9.2026 2.26955 9.23483 2.24876 9.27183C2.22799 9.30891 2.2153 9.34999 2.21154 9.3923C2.19602 9.5926 2.18801 9.79514 2.1875 9.99999C2.18711 11.0698 2.40701 12.1281 2.8335 13.1091C3.25999 14.0902 3.88394 14.973 4.66647 15.7024C4.69948 15.7326 4.73883 15.7551 4.78165 15.7682C4.82447 15.7813 4.86967 15.7847 4.91395 15.778C4.95823 15.7714 5.00048 15.755 5.03759 15.7299C5.0747 15.7048 5.10575 15.6718 5.12846 15.6332C6.59466 13.1454 8.86522 11.2317 11.5655 10.2081V10.2058ZM6.07122 16.404C6.05147 16.4384 6.03876 16.4765 6.03382 16.5159C6.02887 16.5554 6.03179 16.5954 6.04241 16.6336C6.05303 16.6719 6.07113 16.7078 6.09568 16.739C6.12022 16.7702 6.15072 16.7963 6.1854 16.8156C7.75637 17.6964 9.58375 18.0067 11.3574 17.6938C11.4102 17.6846 11.4594 17.6612 11.5 17.6261C11.5404 17.5911 11.5707 17.5457 11.5873 17.4948C11.9748 16.3299 12.1725 15.1104 12.1732 13.8829C12.1734 13.0373 12.0791 12.1942 11.8923 11.3694C9.43083 12.3284 7.37505 14.1064 6.07122 16.404Z" fill="#0B0B0B"/>
</svg>
