<svg width="32" height="32" viewBox="0 0 32 32" fill="none" xmlns="http://www.w3.org/2000/svg">
<path d="M16.0376 15.9999C16.0376 13.0544 18.4254 10.6665 21.3709 10.6665C24.3164 10.6665 26.7042 13.0544 26.7042 15.9999C26.7042 18.9454 24.3163 21.3332 21.3709 21.3332C18.4253 21.3332 16.0376 18.9454 16.0376 15.9999Z" fill="#00BCFF"/>
<path d="M5.37109 26.6668C5.37109 23.7213 7.7589 21.3335 10.7044 21.3335L13.5466 19.833L16.0377 21.3335V26.6668C16.0377 29.6124 13.6499 32.0001 10.7044 32.0001C7.7589 32.0001 5.37109 29.6123 5.37109 26.6668Z" fill="#00CF7F"/>
<path d="M16.0374 0L13.1353 5.04187L16.0374 10.6666H21.2959C24.2414 10.6666 26.6292 8.27881 26.6292 5.33331C26.6292 2.38781 24.2414 0 21.2959 0H16.0374Z" fill="#FF7361"/>
<path d="M5.2959 5.33331C5.2959 8.27881 7.68371 10.6666 10.6292 10.6666L13.4584 11.7594L16.0373 10.6666V0H10.6291C7.68371 0 5.2959 2.38781 5.2959 5.33331Z" fill="#FF4D12"/>
<path d="M5.37109 15.9999C5.37109 18.9455 7.7589 21.3332 10.7044 21.3332H16.0377V10.6665H10.7044C7.7589 10.6665 5.37109 13.0544 5.37109 15.9999Z" fill="#B659FF"/>
</svg>
