<svg width="32" height="32" viewBox="0 0 32 32" fill="none" xmlns="http://www.w3.org/2000/svg">
<g clip-path="url(#clip0_1_841)">
<mask id="mask0_1_841" style="mask-type:luminance" maskUnits="userSpaceOnUse" x="0" y="0" width="32" height="32">
<path d="M32 0H0V32H32V0Z" fill="white"/>
</mask>
<g mask="url(#mask0_1_841)">
<path d="M5.66669 0.399902H26.3334C29.4667 0.399902 32 2.93322 32 6.06659V25.9333C32 29.0666 29.4667 31.6 26.3333 31.6H5.66669C2.53331 31.5999 0 29.0666 0 25.9332V6.06659C0 2.93322 2.53331 0.399902 5.66669 0.399902Z" fill="#001834"/>
<path d="M7.19971 22.2797V8.5597C7.19971 8.46639 7.23971 8.41301 7.33302 8.41301C7.55971 8.41301 7.77302 8.41301 8.07971 8.3997C8.39971 8.38639 8.73302 8.38639 9.09302 8.37301C9.45302 8.35964 9.83971 8.3597 10.2531 8.34633C10.6664 8.33301 11.0664 8.33301 11.4664 8.33301C12.5597 8.33301 13.4664 8.46633 14.2131 8.74633C14.8798 8.97301 15.4931 9.34633 15.9998 9.83964C16.4264 10.2663 16.7598 10.7863 16.9731 11.3596C17.1731 11.9196 17.2798 12.4929 17.2798 13.0929C17.2798 14.2396 17.0131 15.1862 16.4798 15.9329C15.9464 16.6796 15.1998 17.2396 14.3331 17.5596C13.4264 17.8929 12.4264 18.0129 11.3331 18.0129C11.0131 18.0129 10.7998 18.0129 10.6664 17.9996C10.5331 17.9863 10.3464 17.9863 10.0931 17.9863V22.2663C10.1064 22.3596 10.0398 22.4396 9.94634 22.453C9.93302 22.453 9.91965 22.453 9.89302 22.453H7.35971C7.25302 22.453 7.19971 22.3997 7.19971 22.2797ZM10.1064 10.9863V15.4663C10.2931 15.4797 10.4664 15.493 10.6264 15.493H11.3331C12.2538 15.493 13.3171 15.2767 13.9598 14.5464C14.5128 13.9179 14.5144 12.6715 14.0664 11.9864C13.5347 11.1731 12.4713 10.9375 11.5598 10.9597C11.2131 10.9597 10.9064 10.9597 10.6531 10.973C10.3864 10.9597 10.1998 10.973 10.1064 10.9863Z" fill="#00A9FF"/>
<path d="M25.5996 14.6529C25.1996 14.4396 24.773 14.2929 24.3196 14.1996C23.8263 14.0929 23.333 14.0263 22.8263 14.0263C22.5596 14.013 22.2796 14.053 22.0263 14.1196C21.853 14.1596 21.7063 14.2529 21.613 14.3863C21.5463 14.493 21.5063 14.6263 21.5063 14.7463C21.5063 14.8663 21.5596 14.9863 21.6396 15.093C21.7596 15.2397 21.9196 15.3597 22.093 15.453C22.3996 15.613 22.7196 15.7597 23.0396 15.893C23.7596 16.133 24.453 16.4663 25.093 16.8663C25.533 17.1463 25.893 17.5196 26.1463 17.973C26.3596 18.3997 26.4663 18.8663 26.453 19.3463C26.4663 19.973 26.2796 20.5996 25.933 21.1196C25.5596 21.6529 25.0396 22.0663 24.4396 22.3063C23.7863 22.5863 22.9863 22.733 22.0263 22.733C21.413 22.733 20.813 22.6797 20.213 22.5597C19.7463 22.4797 19.2797 22.333 18.853 22.133C18.7597 22.0797 18.693 21.9863 18.7063 21.8797V19.5597C18.7063 19.5197 18.7196 19.4664 18.7596 19.4397C18.7996 19.413 18.8396 19.4264 18.8796 19.453C19.3996 19.7597 19.9463 19.973 20.533 20.1063C21.0396 20.2396 21.573 20.3063 22.1063 20.3063C22.613 20.3063 22.973 20.2396 23.213 20.1196C23.4263 20.0263 23.573 19.7996 23.573 19.5596C23.573 19.3729 23.4663 19.1996 23.253 19.0263C23.0396 18.853 22.5996 18.653 21.9463 18.3996C21.2663 18.1596 20.6396 17.8396 20.053 17.4396C19.6396 17.1463 19.293 16.7596 19.0396 16.3063C18.8263 15.8796 18.7196 15.413 18.733 14.9463C18.733 14.373 18.893 13.8263 19.1863 13.333C19.5196 12.7997 20.013 12.373 20.5863 12.1063C21.213 11.7863 21.9996 11.6396 22.9463 11.6396C23.493 11.6396 24.053 11.6796 24.5996 11.7596C24.9996 11.8129 25.3863 11.9196 25.7463 12.0663C25.7996 12.0796 25.853 12.133 25.8796 12.1863C25.8929 12.2396 25.9063 12.293 25.9063 12.3463V14.5196C25.9063 14.5729 25.8796 14.6263 25.8396 14.6529C25.7196 14.6796 25.653 14.6796 25.5996 14.6529Z" fill="#00A9FF"/>
</g>
</g>
<defs>
<clipPath id="clip0_1_841">
<rect width="32" height="32" fill="white"/>
</clipPath>
</defs>
</svg>
