<svg width="120" height="64" viewBox="0 0 120 64" fill="none" xmlns="http://www.w3.org/2000/svg">
<path fill-rule="evenodd" clip-rule="evenodd" d="M7.1111 19.7754V46.4027H0V19.7754H7.1111Z" fill="white"/>
<path fill-rule="evenodd" clip-rule="evenodd" d="M10.6667 19.7754H25.7778C30.687 19.7754 34.6667 23.7492 34.6667 28.6512C34.6667 33.5531 30.687 37.5269 25.7778 37.5269H17.7778V46.4027H10.6667V19.7754ZM17.7778 30.4263H25.7778C26.7597 30.4263 27.5556 29.6316 27.5556 28.6512C27.5556 27.6708 26.7597 26.876 25.7778 26.876H17.7778V30.4263Z" fill="white"/>
<path fill-rule="evenodd" clip-rule="evenodd" d="M61.3333 19.7754V33.5328C61.3333 36.7191 63.9201 39.3021 67.1111 39.3021C70.3021 39.3021 72.889 36.7191 72.889 33.5328V19.7754H80.0002V33.5328C80.0002 40.6407 74.2296 46.4027 67.1111 46.4027C59.9927 46.4027 54.2222 40.6407 54.2222 33.5328V19.7754H61.3333Z" fill="white"/>
<path fill-rule="evenodd" clip-rule="evenodd" d="M37.3333 32.2015C37.3333 25.3388 42.9049 19.7754 49.7778 19.7754H51.5555V26.876H49.7778C46.8322 26.876 44.4444 29.2603 44.4444 32.2015V33.0891C44.4444 40.4419 38.4749 46.4027 31.1111 46.4027H30.2222V39.3021H31.1111C34.5476 39.3021 37.3333 36.5204 37.3333 33.0891V32.2015Z" fill="white"/>
<path d="M120 20.6627C120 22.1333 118.806 23.3254 117.333 23.3254C115.86 23.3254 114.667 22.1333 114.667 20.6627C114.667 19.1921 115.86 18 117.333 18C118.806 18 120 19.1921 120 20.6627Z" fill="white"/>
<path d="M87.6354 46.402L91.0288 32.2136L93.5516 40.7494C95.0556 45.8404 102.278 45.8404 103.782 40.7494L106.304 32.2136L109.698 46.402H117.009L111.673 24.0916C110.404 18.786 102.917 18.5895 101.37 23.8213L98.6669 32.97L95.963 23.8213C94.4172 18.5895 86.9289 18.7859 85.6601 24.0915L80.3247 46.402H87.6354Z" fill="white"/>
</svg>
