<svg width="192" height="47" viewBox="0 0 192 47" fill="none" xmlns="http://www.w3.org/2000/svg">
<path d="M57.6875 32.9886H71.1335V28.9386H62.4665V13.6836H57.6875V32.9886Z" fill="white"/>
<path d="M79.0976 30.2881C77.1806 30.2881 76.1816 28.6141 76.1816 26.1031C76.1816 23.5921 77.1806 21.8911 79.0976 21.8911C81.0146 21.8911 82.0406 23.5921 82.0406 26.1031C82.0406 28.6141 81.0146 30.2881 79.0976 30.2881ZM79.1246 33.4201C83.5796 33.4201 86.4956 30.2611 86.4956 26.1031C86.4956 21.9451 83.5796 18.7861 79.1246 18.7861C74.6966 18.7861 71.7266 21.9451 71.7266 26.1031C71.7266 30.2611 74.6966 33.4201 79.1246 33.4201Z" fill="white"/>
<path d="M94.2111 37.7678C96.2631 37.7678 98.0721 37.3088 99.2871 36.2288C100.394 35.2298 101.123 33.7178 101.123 31.6388V19.1648H96.9111V20.6498H96.8571C96.0471 19.4888 94.8051 18.7598 92.9691 18.7598C89.5401 18.7598 87.1641 21.6218 87.1641 25.6718C87.1641 29.9108 90.0531 32.2328 93.1581 32.2328C94.8321 32.2328 95.8851 31.5578 96.6951 30.6398H96.8031V32.0168C96.8031 33.6908 96.0201 34.6628 94.1571 34.6628C92.6991 34.6628 91.9701 34.0418 91.7271 33.3128H87.4611C87.8931 36.2018 90.4041 37.7678 94.2111 37.7678ZM94.1841 28.9658C92.5371 28.9658 91.4571 27.6158 91.4571 25.5368C91.4571 23.4308 92.5371 22.0808 94.1841 22.0808C96.0201 22.0808 96.9921 23.6468 96.9921 25.5098C96.9921 27.4538 96.1011 28.9658 94.1841 28.9658Z" fill="white"/>
<path d="M109.781 30.2881C107.864 30.2881 106.865 28.6141 106.865 26.1031C106.865 23.5921 107.864 21.8911 109.781 21.8911C111.698 21.8911 112.724 23.5921 112.724 26.1031C112.724 28.6141 111.698 30.2881 109.781 30.2881ZM109.808 33.4201C114.263 33.4201 117.179 30.2611 117.179 26.1031C117.179 21.9451 114.263 18.7861 109.808 18.7861C105.38 18.7861 102.41 21.9451 102.41 26.1031C102.41 30.2611 105.38 33.4201 109.808 33.4201Z" fill="white"/>
<path d="M118.467 32.9886H122.868V19.1646H118.467V32.9886ZM118.467 17.2476H122.868V13.6836H118.467V17.2476Z" fill="white"/>
<path d="M124.777 37.5518H129.178V31.5578H129.232C130.096 32.7188 131.365 33.4208 133.147 33.4208C136.765 33.4208 139.168 30.5588 139.168 26.0768C139.168 21.9188 136.927 18.7598 133.255 18.7598C131.365 18.7598 130.015 19.5968 129.07 20.8388H128.989V19.1648H124.777V37.5518ZM132.013 30.0188C130.123 30.0188 129.043 28.4798 129.043 26.2388C129.043 23.9978 130.015 22.2968 131.932 22.2968C133.822 22.2968 134.713 23.8628 134.713 26.2388C134.713 28.5878 133.687 30.0188 132.013 30.0188Z" fill="white"/>
<path d="M146.33 33.4208C149.948 33.4208 152.621 31.8548 152.621 28.8308C152.621 25.2938 149.759 24.6728 147.329 24.2678C145.574 23.9438 144.008 23.8088 144.008 22.8368C144.008 21.9728 144.845 21.5678 145.925 21.5678C147.14 21.5678 147.977 21.9458 148.139 23.1878H152.189C151.973 20.4608 149.867 18.7598 145.952 18.7598C142.685 18.7598 139.985 20.2718 139.985 23.1878C139.985 26.4278 142.55 27.0758 144.953 27.4808C146.789 27.8048 148.463 27.9398 148.463 29.1818C148.463 30.0728 147.626 30.5588 146.303 30.5588C144.845 30.5588 143.927 29.8838 143.765 28.5068H139.607C139.742 31.5578 142.28 33.4208 146.33 33.4208Z" fill="white"/>
<path d="M158.6 33.394C160.517 33.394 161.732 32.6379 162.731 31.2879H162.812V32.989H167.024V19.165H162.623V26.887C162.623 28.534 161.705 29.668 160.193 29.668C158.789 29.668 158.114 28.831 158.114 27.319V19.165H153.74V28.2369C153.74 31.315 155.414 33.394 158.6 33.394Z" fill="white"/>
<path d="M168.939 32.9888H173.34V25.2398C173.34 23.5928 174.15 22.4318 175.527 22.4318C176.85 22.4318 177.471 23.2958 177.471 24.7808V32.9888H181.872V25.2398C181.872 23.5928 182.655 22.4318 184.059 22.4318C185.382 22.4318 186.003 23.2958 186.003 24.7808V32.9888H190.404V23.9978C190.404 20.8928 188.838 18.7598 185.706 18.7598C183.924 18.7598 182.439 19.5158 181.359 21.1898H181.305C180.603 19.7048 179.226 18.7598 177.417 18.7598C175.419 18.7598 174.096 19.7048 173.232 21.1358H173.151V19.1648H168.939V32.9888Z" fill="white"/>
<path fill-rule="evenodd" clip-rule="evenodd" d="M22.6132 45.3642C35.0398 45.3642 45.1132 35.2906 45.1132 22.8642C45.1132 10.4379 35.0398 0.364258 22.6132 0.364258C10.1869 0.364258 0.113281 10.4379 0.113281 22.8642C0.113281 35.2906 10.1869 45.3642 22.6132 45.3642ZM26.0861 17.7484C28.004 15.8304 28.004 12.7208 26.0861 10.8028C24.1681 8.88476 21.0585 8.88476 19.1405 10.8028C17.2226 12.7208 17.2226 15.8304 19.1405 17.7484L22.6132 21.2212L26.0861 17.7484ZM27.7292 26.3371C29.6472 28.2551 32.7568 28.2551 34.6748 26.3371C36.5927 24.4191 36.5927 21.3095 34.6748 19.3915C32.7568 17.4736 29.6472 17.4736 27.7292 19.3915L24.2564 22.8643L27.7292 26.3371ZM26.0861 34.9258C28.004 33.0078 28.004 29.8982 26.0861 27.9802L22.6132 24.5074L19.1405 27.9802C17.2226 29.8982 17.2226 33.0078 19.1405 34.9258C21.0585 36.8438 24.1681 36.8438 26.0861 34.9258ZM10.5517 26.3371C8.63379 24.4191 8.63379 21.3095 10.5517 19.3915C12.4698 17.4736 15.5794 17.4736 17.4974 19.3915L20.9702 22.8643L17.4974 26.3371C15.5794 28.2551 12.4698 28.2551 10.5517 26.3371Z" fill="white"/>
</svg>
