<svg width="46" height="36" viewBox="0 0 46 36" fill="none" xmlns="http://www.w3.org/2000/svg">
<path d="M4.08379 32.242C1.42662 29.4198 0 26.2544 0 21.1232C0 12.094 6.33851 4.00123 15.5561 0L17.8598 3.55493C9.25624 8.20885 7.57423 14.2481 6.90348 18.0559C8.28882 17.3387 10.1024 17.0884 11.8799 17.2535C16.5338 17.6844 20.2022 21.505 20.2022 26.2544C20.2022 28.6491 19.2509 30.9457 17.5576 32.639C15.8643 34.3323 13.5677 35.2836 11.173 35.2836C9.84868 35.2722 8.53986 34.9974 7.32277 34.4752C6.10568 33.953 5.00464 33.1939 4.08379 32.242ZM29.8816 32.242C27.2244 29.4198 25.7978 26.2544 25.7978 21.1232C25.7978 12.094 32.1363 4.00123 41.3538 0L43.6576 3.55493C35.054 8.20885 33.372 14.2481 32.7013 18.0559C34.0866 17.3387 35.9002 17.0884 37.6776 17.2535C42.3316 17.6844 46 21.505 46 26.2544C46 28.6491 45.0487 30.9457 43.3554 32.639C41.6621 34.3323 39.3655 35.2836 36.9708 35.2836C35.6465 35.2722 34.3376 34.9974 33.1205 34.4752C31.9035 33.953 30.8024 33.1939 29.8816 32.242Z" fill="#883EFF"/>
</svg>
